<svg width="20" height="20" viewBox="0 0 20 20" fill="none" xmlns="http://www.w3.org/2000/svg">
<g clip-path="url(#clip0_201_2)">
<path d="M10.015 9.94899H9.98502C8.79402 9.94899 7.74502 9.64599 7.12402 10.217C6.95531 10.3669 6.82089 10.5514 6.72995 10.758C6.639 10.9646 6.59367 11.1883 6.59702 11.414C6.59702 13.266 8.08002 13.494 9.98602 13.494H10.015C11.92 13.494 13.404 13.265 13.404 11.414C13.404 10.971 13.248 10.558 12.877 10.217C12.255 9.64599 11.206 9.94899 10.015 9.94899V9.94899ZM8.39302 12.48C8.03002 12.48 7.73702 12.072 7.73702 11.57C7.73702 11.068 8.03002 10.662 8.39302 10.662C8.75602 10.662 9.05002 11.068 9.05002 11.57C9.05102 12.072 8.75702 12.48 8.39302 12.48ZM11.606 12.48C11.243 12.48 10.949 12.072 10.949 11.57C10.949 11.068 11.243 10.662 11.606 10.662C11.968 10.662 12.262 11.068 12.262 11.57C12.263 12.072 11.969 12.48 11.606 12.48ZM10 0.399994C4.69802 0.399994 0.400024 4.69799 0.400024 9.99999C0.400024 15.302 4.69802 19.6 10 19.6C15.302 19.6 19.6 15.302 19.6 9.99999C19.6 4.69799 15.302 0.399994 10 0.399994ZM10.876 13.939C10.704 13.939 10.362 13.939 10 13.941C9.63802 13.939 9.29602 13.939 9.12402 13.939C8.36402 13.939 5.35202 13.88 5.35202 10.25C5.35202 9.41599 5.63802 8.80499 6.10702 8.29499C6.03302 8.11099 6.02902 7.06299 6.42702 6.05899C6.42702 6.05899 7.34302 6.15899 8.72802 7.10999C9.01702 7.02899 9.50902 6.98799 10 6.98799C10.491 6.98799 10.982 7.02899 11.273 7.10899C12.658 6.15799 13.574 6.05799 13.574 6.05799C13.972 7.06199 13.969 8.11099 13.894 8.29399C14.363 8.80399 14.649 9.41499 14.649 10.249C14.648 13.881 11.636 13.939 10.876 13.939V13.939Z" fill="#222222"/>
</g>
<defs>
<clipPath id="clip0_201_2">
<rect width="20" height="20" fill="white"/>
</clipPath>
</defs>
</svg>
