<svg width="20" height="20" viewBox="0 0 20 20" fill="none" xmlns="http://www.w3.org/2000/svg">
<path d="M13 9.99999C13 10.7956 12.684 11.5587 12.1213 12.1213C11.5587 12.6839 10.7957 13 10 13C9.20438 13 8.44131 12.6839 7.8787 12.1213C7.31609 11.5587 7.00002 10.7956 7.00002 9.99999C7.00002 9.82899 7.01802 9.66199 7.04902 9.49999H6.00002V13.497C6.00002 13.775 6.22502 14 6.50302 14H13.498C13.6313 13.9997 13.7589 13.9466 13.8531 13.8523C13.9472 13.758 14 13.6302 14 13.497V9.49999H12.951C12.982 9.66199 13 9.82899 13 9.99999V9.99999ZM10 12C10.2627 11.9999 10.5229 11.9481 10.7655 11.8475C11.0082 11.7469 11.2287 11.5995 11.4144 11.4137C11.6002 11.2279 11.7475 11.0073 11.8479 10.7646C11.9484 10.5219 12.0001 10.2617 12 9.99899C12 9.73628 11.9481 9.47616 11.8476 9.23347C11.747 8.99079 11.5995 8.77029 11.4137 8.58457C11.2279 8.39886 11.0074 8.25156 10.7646 8.15108C10.5219 8.05061 10.2617 7.99893 9.99902 7.99899C9.46846 7.99913 8.95968 8.21002 8.5846 8.58528C8.20953 8.96054 7.99889 9.46943 7.99902 9.99999C7.99916 10.5306 8.21005 11.0393 8.58531 11.4144C8.96057 11.7895 9.46946 12.0001 10 12V12ZM12.4 7.89999H13.599C13.6787 7.89999 13.7551 7.86842 13.8115 7.81219C13.8679 7.75595 13.8998 7.67965 13.9 7.59999V6.40099C13.9 6.32116 13.8683 6.2446 13.8119 6.18815C13.7554 6.13171 13.6789 6.09999 13.599 6.09999H12.4C12.3202 6.09999 12.2436 6.13171 12.1872 6.18815C12.1307 6.2446 12.099 6.32116 12.099 6.40099V7.59999C12.1 7.76499 12.235 7.89999 12.4 7.89999V7.89999ZM10 0.399994C7.45395 0.399994 5.01215 1.41142 3.2118 3.21177C1.41145 5.01212 0.400024 7.45392 0.400024 9.99999C0.400024 12.5461 1.41145 14.9879 3.2118 16.7882C5.01215 18.5886 7.45395 19.6 10 19.6C11.2607 19.6 12.5091 19.3517 13.6738 18.8692C14.8385 18.3868 15.8968 17.6797 16.7882 16.7882C17.6797 15.8968 18.3868 14.8385 18.8693 13.6738C19.3517 12.509 19.6 11.2607 19.6 9.99999C19.6 8.7393 19.3517 7.49096 18.8693 6.32623C18.3868 5.16151 17.6797 4.10321 16.7882 3.21177C15.8968 2.32033 14.8385 1.6132 13.6738 1.13075C12.5091 0.648305 11.2607 0.399994 10 0.399994V0.399994ZM15 13.889C15 14.5 14.5 15 13.889 15H6.11102C5.50002 15 5.00002 14.5 5.00002 13.889V6.11099C5.00002 5.49999 5.50002 4.99999 6.11102 4.99999H13.889C14.5 4.99999 15 5.49999 15 6.11099V13.889V13.889Z" fill="#222222"/>
</svg>
