<svg width="20" height="20" viewBox="0 0 20 20" fill="none" xmlns="http://www.w3.org/2000/svg">
<path d="M11.603 9.83299L9.35703 8.78499C9.16103 8.69399 9.00002 8.79599 9.00002 9.01299V10.987C9.00002 11.204 9.16103 11.306 9.35703 11.215L11.602 10.167C11.799 10.075 11.799 9.92499 11.603 9.83299ZM10 0.399994C4.69802 0.399994 0.400024 4.69799 0.400024 9.99999C0.400024 15.302 4.69802 19.6 10 19.6C15.302 19.6 19.6 15.302 19.6 9.99999C19.6 4.69799 15.302 0.399994 10 0.399994ZM10 13.9C5.08602 13.9 5.00002 13.457 5.00002 9.99999C5.00002 6.54299 5.08602 6.09999 10 6.09999C14.914 6.09999 15 6.54299 15 9.99999C15 13.457 14.914 13.9 10 13.9Z" fill="#222222"/>
</svg>
